# AST/ASF file generated using VICON BodyLanguage
# -----------------------------------------------
:version 1.10
:name VICON
:units
  mass 1.0
  length 0.45
  angle deg
:documentation
   .ast/.asf automatically generated from VICON data using
   VICON BodyBuilder and BodyLanguage model FoxedUp or BRILLIANT.MOD
:root
   order TX TY TZ RX RY RZ
   axis XYZ
   position 0 0 0  
   orientation 0 -0 0 
:bonedata
  begin
     id 1 
     name lhipjoint
     direction 0.432694 -0.693742 0.575759 
     length 2.19277 
     axis 0 -0 0  XYZ
  end
  begin
     id 2 
     name lfemur
     direction 0.34202 -0.939693 0  
     length 6.69022  
     axis 0 -0 20  XYZ
    dof rx ry rz
    limits (-160.0 20.0)
           (-70.0 70.0)
           (-60.0 70.0)
  end
  begin
     id 3 
     name ltibia
     direction 0.34202 -0.939693 0   
     length 6.50337   
     axis 0 -0 20   XYZ
    dof rx
    limits (-10.0 170.0)
  end
  begin
     id 4 
     name lfoot
     direction 0.158999 -0.435969 0.885805   
     length 2.70564   
     axis -90 -1.13533e-015 20   XYZ
    dof rx rz
    limits (-45.0 90.0)
           (-70.0 20.0)
  end
  begin
     id 5 
     name ltoes
     direction -0.00592919 0.00964381 0.999936   
     length 1.29929   
     axis -90 -1.13533e-015 20   XYZ
    dof rx
    limits (-90.0 20.0)
  end
  begin
     id 6 
     name rhipjoint
     direction -0.414359 -0.700339 0.581234   
     length 2.17212  
     axis 0 -0 0  XYZ 
  end
  begin
     id 7 
     name rfemur
     direction -0.34202 -0.939693 0   
     length 7.17659   
     axis 0 -0 -20   XYZ
    dof rx ry rz
    limits (-160.0 20.0)
           (-70.0 70.0)
           (-70.0 60.0)
  end
  begin
     id 8 
     name rtibia
     direction -0.34202 -0.939693 0   
     length 6.36669   
     axis 0 -0 -20   XYZ
    dof rx
    limits (-10.0 170.0)
 end
 begin
     id 9 
     name rfoot
     direction -0.137064 -0.37658 0.916188   
     length 2.22351  
     axis -90 1.13533e-015 -20   XYZ
    dof rx rz
    limits (-45.0 90.0)
           (-20.0 70.0)
  end
  begin
     id 10 
     name rtoes
     direction -0.000784077 -0.00289101 0.999996   
     length 1.09522   
     axis -90 1.13533e-015 -20   XYZ
    dof rx
    limits (-90.0 20.0)
  end
  begin
     id 11 
     name lowerback
     direction -0.0176242 0.984912 -0.172157   
     length 1.65301   
     axis 0 -0 0   XYZ
    dof rx ry rz
    limits (-20.0 45.0)
           (-30.0 30.0)
           (-30.0 30.0)
  end
  begin
     id 12 
     name upperback
     direction -0.00218128 0.998776 -0.0494072   
     length 1.67776   
     axis 0 -0 0   XYZ
    dof rx ry rz
    limits (-20.0 45.0)
           (-30.0 30.0)
           (-30.0 30.0)
  end
  begin
     id 13 
     name thorax
     direction 0.00544186 0.999658 0.0255711   
     length 1.72293   
     axis 0 -0 0   XYZ
    dof rx ry rz
    limits (-20.0 45.0)
           (-30.0 30.0)
           (-30.0 30.0)
  end
  begin
     id 14 
     name lowerneck
     direction -0.105325 0.983841 0.144785   
     length 2.14226   
     axis 0 -0 0   XYZ
    dof rx ry rz
    limits (-20.0 45.0)
           (-30.0 30.0)
           (-30.0 30.0)
  end
  begin
     id 15 
     name upperneck
     direction 0.0547957 0.988053 -0.144041   
     length 2.17508   
     axis 0 -0 0   XYZ
    dof rx ry rz
    limits (-20.0 45.0)
           (-30.0 30.0)
           (-30.0 30.0)
  end
  begin
     id 16
     name head
     direction 0.0247488 0.997534 -0.0656813  
     length 2.20048  
     axis 0 -0 0   XYZ
    dof rx ry rz
    limits (-20.0 45.0)
           (-30.0 30.0)
           (-30.0 30.0)
  end
  begin
     id 17 
     name lclavicle
     direction 0.820559 0.567247 -0.0701026  
     length 4.09615  
     axis 0 -0 0   XYZ
    dof ry rz
    limits (-20.0 10.0)
           (0.0 20.0)
  end
  begin
     id 18 
     name lhumerus
     direction 0.999977 -0.0067566 -9.96392e-005   
     length 4.59333   
     axis -180 -30 -90   XYZ
    dof rx ry rz
    limits (-60.0 90.0)
           (-90.0 90.0)
           (-90.0 90.0)
  end
  begin
     id 19
     name lradius
     direction 1 -4.48982e-011 -2.53425e-027   
     length 2.81151   
     axis -180 -30 -90   XYZ
    dof rx
    limits (-10.0 170.0)
  end
  begin
     id 20
     name lwrist
     direction 1 -4.48939e-011 -7.39254e-028   
     length 1.40576   
     axis 2.56395e-016 90 90   XYZ
    dof ry
    limits (-180.0 0.0)
 end
  begin
     id 21 
     name lhand
     direction 1 -4.48939e-011 -1.47851e-027   
     length 0.895651   
     axis 9.43423e-016 90 90   XYZ
    dof rx rz
    limits (-90.0 90.0)
           (-45.0 45.0)
  end
  begin
     id 22 
     name lfingers
     direction 1 -4.48978e-011 -2.95702e-027   
     length 0.722097   
     axis 1.88685e-015 90 90   XYZ
    dof rx
    limits (0.0 90.0)
  end
  begin
     id 23
     name lthumb
     direction 0.707107 -6.34931e-011 0.707107   
     length 1.03679   
     axis -90 45 -9.86935e-015   XYZ
    dof rx rz
    limits (-45.0 45.0)
           (-45.0 45.0)
  end
  begin
     id 24 
     name rclavicle
     direction -0.831414 0.553102 -0.0531864   
     length 4.24872  
     axis 0 -0 0   XYZ 
    dof ry rz
    limits (-10.0 20.0)
           (-20.0 0.0)
  end
  begin
     id 25 
     name rhumerus
     direction -0.999916 -0.000939607 0.0129331  
     length 4.74834   
     axis -180 30 90   XYZ
    dof rx ry rz
    limits (-90.0 60.0)
           (-90.0 90.0)
           (-90.0 90.0)
  end
  begin
     id 26 
     name rradius
     direction -1 -4.48956e-011 -1.31752e-027   
     length 2.79907   
     axis -180 30 90   XYZ
    dof rx
    limits (-10.0 170.0)
  end
  begin
     id 27 
     name rwrist
     direction -1 -4.4897e-011 -7.39254e-028   
     length 1.39954   
     axis 2.56395e-016 -90 -90   XYZ
    dof ry
    limits (-180.0 0.0)
  end
  begin
     id 28
     name rhand
     direction -0.999997 -0.00250697 0.000800838   
     length 0.953304   
     axis 9.43423e-016 -90 -90   XYZ
    dof rx rz
    limits (-90.0 90.0)
           (-45.0 45.0)
  end
  begin
     id 29
     name rfingers
     direction -1 -4.48954e-011 -2.95702e-027   
     length 0.763342   
     axis 1.88685e-015 -90 -90   XYZ
    dof rx
    limits (0.0 90.0)
  end
  begin
     id 30
     name rthumb
     direction -0.709701 -0.00217037 0.7045   
     length 1.10115   
     axis -90 -45 9.86935e-015   XYZ
    dof rx rz
    limits (-45.0 45.0)
           (-45.0 45.0)
  end
:hierarchy
  begin
    root lhipjoint rhipjoint lowerback
    lhipjoint lfemur
    lfemur ltibia
    ltibia lfoot
    lfoot ltoes
    rhipjoint rfemur
    rfemur rtibia
    rtibia rfoot
    rfoot rtoes
    lowerback upperback
    upperback thorax
    thorax lowerneck lclavicle rclavicle
    lowerneck upperneck
    upperneck head
    lclavicle lhumerus
    lhumerus lradius
    lradius lwrist
    lwrist lhand lthumb
    lhand lfingers
    rclavicle rhumerus
    rhumerus rradius
    rradius rwrist
    rwrist rhand rthumb
    rhand rfingers
  end

#!OML:ASF G:\ViconDB\ViconDB\414\test\team2\shane.ASF
:FULLY-SPECIFIED
:DEGREES
1
root 2.34615 16.6327 -24.8885 -3.71742 -6.15738 -5.71163
lowerback 6.42715 -1.17343 2.61723
upperback 1.81529 -1.33366 3.17053
thorax -1.71456 -0.674416 1.90111
lowerneck -17.3647 -1.76306 -7.71264
upperneck 21.7855 -2.57792 9.12158
head 10.0108 -0.787385 4.17743
rclavicle 2.23881e-014 -1.35174e-014
rhumerus -41.7782 5.38849 -91.1742
rradius 28.9908
rwrist 38.3703
rhand -29.2914 -13.4922
rfingers 7.12502
rthumb -2.6331 -43.4557
lclavicle 2.23881e-014 -1.35174e-014
lhumerus -36.8528 -24.0875 105.203
lradius 26.7422
lwrist -10.1713
lhand -36.0625 7.48651
lfingers 7.12502
lthumb -9.17013 37.2671
rfemur 1.17097 -17.563 19.3422
rtibia 31.0351
rfoot -29.3782 7.5986
rtoes -6.63947
lfemur 8.6376 11.3354 -1.4161
ltibia 20.1795
lfoot -25.2023 -7.17249
ltoes -9.74802
2
root 2.30721 16.6304 -24.8714 -3.71733 -6.3017 -5.66782
lowerback 6.45768 -1.17176 2.54246
upperback 1.86289 -1.33643 3.20208
thorax -1.67999 -0.67565 1.97584
lowerneck -17.4328 -1.72713 -7.70942
upperneck 21.8253 -2.49876 9.01376
head 10.0286 -0.761432 4.15027
rclavicle 3.19919e-014 -2.42517e-014
rhumerus -42.1468 5.99854 -91.4045
rradius 29.2764
rwrist 36.892
rhand -29.0844 -13.363
rfingers 7.12502
rthumb -2.43325 -43.3288
lclavicle 3.19919e-014 -2.42517e-014
lhumerus -36.7294 -24.127 105.085
lradius 27.0751
lwrist -10.5464
lhand -36.3331 8.19689
lfingers 7.12502
lthumb -9.43123 37.9659
rfemur 1.21834 -17.2818 19.4843
rtibia 31.0968
rfoot -29.5258 7.41125
rtoes -6.46502
lfemur 8.70215 11.6501 -1.2349
ltibia 20.1864
lfoot -25.1674 -7.27121
ltoes -10.0823
3
root 2.26873 16.6177 -24.8586 -3.7542 -6.41319 -5.6647
lowerback 6.56908 -1.21346 2.46369
upperback 1.9364 -1.39404 3.26133
thorax -1.66194 -0.704459 2.08746
lowerneck -17.4891 -1.67589 -7.64986
upperneck 21.7825 -2.3795 8.78586
head 10.0089 -0.72625 4.07275
rclavicle 1.60519e-014 -1.63003e-014
rhumerus -42.285 6.09335 -91.326
rradius 29.1543
rwrist 36.7138
rhand -29.0367 -13.8891
rfingers 7.12502
rthumb -2.38714 -43.8555
lclavicle 1.60519e-014 -1.63003e-014
lhumerus -36.2482 -23.7382 104.714
lradius 27.265
lwrist -9.12359
lhand -36.1323 6.75989
lfingers 7.12502
lthumb -9.2375 36.5375
rfemur 1.28238 -17.1508 19.6269
rtibia 31.1914
rfoot -29.6708 7.37182
rtoes -6.49901
lfemur 8.8267 11.3559 -1.12394
ltibia 20.2796
lfoot -25.1923 -6.98711
ltoes -10.1665
4
root 2.22892 16.6101 -24.8442 -3.76969 -6.54225 -5.58173
lowerback 6.61299 -1.17377 2.41282
upperback 1.95327 -1.34395 3.22348
thorax -1.66966 -0.679372 2.0737
lowerneck -17.4982 -1.70068 -7.8601
upperneck 21.8995 -2.41738 9.01093
head 10.0611 -0.735701 4.18902
rclavicle 2.83765e-014 -3.57812e-015
rhumerus -42.5883 5.96604 -91.2217
rradius 29.11
rwrist 36.6441
rhand -28.9272 -13.5168
rfingers 7.12502
rthumb -2.28137 -43.4843
lclavicle 2.83765e-014 -3.57812e-015
lhumerus -36.1079 -23.6386 104.477
lradius 27.342
lwrist -9.80177
lhand -36.3193 7.22047
lfingers 7.12502
lthumb -9.41787 36.99
rfemur 1.34646 -17.0718 19.6592
rtibia 31.2288
rfoot -29.7451 7.4785
rtoes -6.32933
lfemur 8.9945 10.9516 -1.19029
ltibia 20.4192
lfoot -25.3523 -6.38032
ltoes -10.4568
5
root 2.19031 16.6084 -24.8233 -3.81447 -6.67909 -5.52057
lowerback 6.66857 -1.18471 2.43439
upperback 2.00391 -1.35799 3.15584
thorax -1.65026 -0.686212 1.99335
lowerneck -17.5393 -1.66317 -7.79636
upperneck 21.9341 -2.38073 9.00399
head 10.0767 -0.713466 4.18196
rclavicle -1.2424e-015 -1.98785e-015
rhumerus -42.765 5.66272 -91.0904
rradius 28.8842
rwrist 36.7245
rhand -29.0139 -13.4661
rfingers 7.12502
rthumb -2.36512 -43.4328
lclavicle -1.2424e-015 -1.98785e-015
lhumerus -35.7891 -23.3341 103.982
lradius 27.3342
lwrist -10.0675
lhand -36.4457 6.79202
lfingers 7.12502
lthumb -9.53987 36.5561
rfemur 1.47773 -17.0209 19.6775
rtibia 31.29
rfoot -29.9131 7.58981
rtoes -6.23631
lfemur 8.94256 11.4489 -0.979618
ltibia 20.5631
lfoot -25.2701 -6.67593
ltoes -10.8264
6
root 2.14281 16.6011 -24.8051 -3.77343 -6.60473 -5.75815
lowerback 6.67413 -1.28271 2.54933
upperback 2.04065 -1.48063 3.24762
thorax -1.61373 -0.747613 2.0332
lowerneck -17.5358 -1.57443 -7.68072
upperneck 21.9163 -2.25557 8.87483
head 10.0545 -0.660848 4.13164
rclavicle -9.77772e-015 3.1408e-014
rhumerus -43.0869 6.08017 -91.2411
rradius 28.8848
rwrist 36.641
rhand -28.9415 -13.7985
rfingers 7.12502
rthumb -2.29522 -43.7659
lclavicle -9.77772e-015 3.1408e-014
lhumerus -35.4778 -22.8998 103.487
lradius 27.4191
lwrist -10.8597
lhand -36.5949 6.92627
lfingers 7.12502
lthumb -9.68377 36.6837
rfemur 1.56889 -17.027 20.1185
rtibia 31.311
rfoot -30.1117 7.42938
rtoes -6.36306
lfemur 8.87361 11.4051 -0.504631
ltibia 20.7568
lfoot -25.1722 -6.73987
ltoes -11.3132
7
root 2.10565 16.5932 -24.7834 -3.91482 -6.90276 -5.42167
lowerback 6.76006 -1.19643 2.31443
upperback 2.11441 -1.38271 3.13255
thorax -1.58456 -0.698384 2.03903
lowerneck -17.446 -1.56612 -7.64104
upperneck 21.866 -2.22522 8.74353
head 10.0147 -0.660387 4.07903
rclavicle 6.70898e-015 -3.89618e-014
rhumerus -43.2119 5.43487 -90.7801
rradius 28.512
rwrist 37.3161
rhand -29.034 -13.3203
rfingers 7.12502
rthumb -2.38454 -43.2867
lclavicle 6.70898e-015 -3.89618e-014
lhumerus -35.2451 -22.4214 103.023
lradius 27.4998
lwrist -11.8135
lhand -36.9487 6.97244
lfingers 7.12502
lthumb -10.0251 36.7137
rfemur 1.79288 -17.018 19.7475
rtibia 31.3218
rfoot -30.25 7.81569
rtoes -6.20711
lfemur 9.14729 11.4188 -0.711668
ltibia 20.987
lfoot -25.3791 -6.48049
ltoes -11.7994
8
root 2.06884 16.5883 -24.7642 -3.97123 -7.07328 -5.28753
lowerback 6.78525 -1.16561 2.21684
upperback 2.20683 -1.35119 3.12401
thorax -1.50185 -0.682559 2.08159
lowerneck -17.6348 -1.51789 -7.70158
upperneck 22.0053 -2.14288 8.7755
head 10.0932 -0.620162 4.11815
rclavicle 1.48716e-014 -1.19271e-014
rhumerus -43.2736 5.04112 -90.4014
rradius 28.33
rwrist 37.6639
rhand -28.7795 -13.2207
rfingers 7.12502
rthumb -2.13874 -43.1897
lclavicle 1.48716e-014 -1.19271e-014
lhumerus -34.8582 -21.9857 102.59
lradius 27.5578
lwrist -12.3917
lhand -37.0474 6.70769
lfingers 7.12502
lthumb -10.1204 36.4443
rfemur 1.92735 -16.9801 19.6717
rtibia 31.3642
rfoot -30.4403 7.83995
rtoes -6.33617
lfemur 9.17411 11.3666 -0.73875
ltibia 21.2262
lfoot -25.3372 -6.2221
ltoes -12.3825
9
root 2.03036 16.5833 -24.7467 -4.00182 -7.27243 -5.22155
lowerback 6.82663 -1.11939 2.2573
upperback 2.27406 -1.28885 3.07703
thorax -1.45871 -0.651175 2.00531
lowerneck -17.5768 -1.4996 -7.71378
upperneck 21.9621 -2.10441 8.73414
head 10.0627 -0.609309 4.10859
rclavicle -1.15419e-014 5.56597e-015
rhumerus -43.4582 5.06846 -90.4009
rradius 28.2113
rwrist 37.3463
rhand -28.7791 -13.4949
rfingers 7.12502
rthumb -2.13837 -43.4639
lclavicle -1.15419e-014 5.56597e-015
lhumerus -34.5781 -21.6049 102.123
lradius 27.7673
lwrist -12.8845
lhand -37.023 6.94687
lfingers 7.12502
lthumb -10.0968 36.6846
rfemur 2.04098 -17.0779 19.6384
rtibia 31.4099
rfoot -30.5964 8.1857
rtoes -6.17776
lfemur 9.17624 11.1293 -0.75511
ltibia 21.534
lfoot -25.3366 -5.78532
ltoes -12.9641
10
root 1.98681 16.5756 -24.7293 -4.08492 -7.32148 -5.06533
lowerback 6.974 -1.12669 2.04012
upperback 2.31002 -1.30889 3.04625
thorax -1.49913 -0.661551 2.09996
lowerneck -17.5602 -1.42804 -7.59417
upperneck 21.9626 -2.00729 8.60728
head 10.0478 -0.569301 4.05513
rclavicle -1.61016e-014 -4.37326e-014
rhumerus -43.6925 5.1652 -90.3835
rradius 28.0386
rwrist 37.4504
rhand -28.7803 -13.5478
rfingers 7.12502
rthumb -2.1395 -43.5169
lclavicle -1.61016e-014 -4.37326e-014
lhumerus -34.4964 -21.5613 101.857
lradius 28.1003
lwrist -12.8435
lhand -37.3524 7.00457
lfingers 7.12502
lthumb -10.4146 36.7266
rfemur 2.22945 -17.1967 19.5286
rtibia 31.426
rfoot -30.7612 8.39614
rtoes -6.14076
lfemur 9.15514 11.266 -0.657353
ltibia 21.92
lfoot -25.3577 -5.99671
ltoes -13.28
